<svg xmlns="http://www.w3.org/2000/svg" viewBox="0 0 100 100" width="100" height="100">
  <!-- Laptop Base -->
  <rect x="15" y="55" width="70" height="10" rx="3" fill="#666"/>
  <rect x="10" y="65" width="80" height="5" rx="2" fill="#444"/>
  
  <!-- Laptop Screen -->
  <rect x="12" y="10" width="76" height="45" rx="5" fill="#88ccff"/>
  <rect x="15" y="13" width="70" height="39" rx="3" fill="#e6f7ff"/>
  
  <!-- Cute Screen Face -->
  <!-- Eyes -->
  <circle cx="35" cy="28" r="4" fill="#333"/>
  <circle cx="65" cy="28" r="4" fill="#333"/>
  
  <!-- Smile -->
  <path d="M 40 38 Q 50 45 60 38" stroke="#333" stroke-width="2" fill="none" stroke-linecap="round"/>
  
  <!-- Screen Glare -->
  <path d="M 15 13 L 25 13 L 20 25 Z" fill="white" fill-opacity="0.3"/>
  
  <!-- Keyboard -->
  <rect x="25" y="45" width="50" height="3" rx="1" fill="#ccc"/>
  
  <!-- Decorative Heart -->
  <path d="M 50 42 Q 52 40 54 42 Q 56 44 54 46 Q 52 48 50 46 Q 48 48 46 46 Q 44 44 46 42 Q 48 40 50 42 Z" fill="#ff6b9d"/>
</svg>